<svg width="18" height="23" viewBox="0 0 18 23" fill="none" xmlns="http://www.w3.org/2000/svg">
<path d="M9 0C8.26773 0 7.74169 0.464574 7.29332 0.858132C6.845 1.25169 6.45231 1.58402 6.07484 1.64116C5.70163 1.69766 4.97236 1.3171 4.27069 0.945224C3.91989 0.759284 3.57488 0.582713 3.19602 0.526545C2.81716 0.470372 2.34877 0.624319 2.10778 1.01074C1.75886 1.57023 1.91085 2.23447 2.23002 2.78374C2.5492 3.333 3.04203 3.84818 3.55797 4.31143C4.58978 5.23795 5.73287 5.947 5.73287 5.947C5.79779 5.98763 5.87281 6.00922 5.9494 6.00932H12.0506C12.1272 6.00922 12.2022 5.98763 12.2671 5.947C12.2671 5.947 13.4102 5.23795 14.442 4.31143C14.958 3.84818 15.4508 3.333 15.77 2.78374C16.0891 2.23447 16.2411 1.57023 15.8922 1.01074C15.6512 0.624319 15.1828 0.470372 14.804 0.526545C14.4251 0.582713 14.0802 0.759284 13.7293 0.945224C13.0277 1.3171 12.2984 1.69766 11.9252 1.64116C11.5477 1.58402 11.155 1.25169 10.7067 0.858132C10.2583 0.464574 9.73227 0 9 0ZM5.95339 6.8275C5.90228 6.82742 5.85159 6.83692 5.80398 6.85549C4.04444 7.54394 2.61459 9.19146 1.6036 11.1174C0.592618 13.0433 0 15.2606 0 17.1818C0 19.6647 1.08235 21.2002 2.75018 21.9902C4.41796 22.7803 6.6112 22.9091 9 22.9091C11.3888 22.9091 13.582 22.7803 15.2498 21.9902C16.9176 21.2002 18 19.6647 18 17.1818C18 15.2606 17.4074 13.0433 16.3964 11.1174C15.3854 9.19143 13.9556 7.54392 12.196 6.85547C12.1484 6.83689 12.0977 6.82739 12.0466 6.82748L5.95339 6.8275Z" fill="#1163FC"/>
<path d="M5.31712 5.19043C4.64428 5.19043 4.08984 5.74487 4.08984 6.4177C4.08984 7.09053 4.64428 7.64498 5.31712 7.64498H12.6808C13.3536 7.64498 13.908 7.09054 13.908 6.4177C13.908 5.74487 13.3536 5.19043 12.6808 5.19043H5.31712Z" fill="#85AFFD"/>
<path d="M7.485 12.5771C7.37156 12.5771 7.2751 12.6169 7.19656 12.6954C7.12235 12.7696 7.08549 12.8632 7.08549 12.9767V13.8244H6.45987C6.35137 13.8244 6.2473 13.8675 6.17058 13.9442C6.09386 14.0209 6.05078 14.125 6.05078 14.2335C6.05078 14.342 6.09386 14.446 6.17058 14.5228C6.2473 14.5995 6.35137 14.6426 6.45987 14.6426H7.08549V15.094H6.45987C6.35137 15.094 6.2473 15.1371 6.17058 15.2138C6.09386 15.2906 6.05078 15.3946 6.05078 15.5031C6.05078 15.6116 6.09386 15.7157 6.17058 15.7924C6.2473 15.8691 6.35137 15.9122 6.45987 15.9122H7.08549V16.7927C7.08549 16.8974 7.11823 16.985 7.18377 17.0548C7.24923 17.1246 7.33393 17.1594 7.43865 17.1594C7.54772 17.1594 7.63527 17.1246 7.70073 17.0548C7.77056 16.985 7.8054 16.8974 7.8054 16.7927V15.9122H9.31312L10.2072 17.0476C10.2379 17.0825 10.2815 17.1113 10.3382 17.1331C10.3994 17.1505 10.4581 17.1595 10.5148 17.1595C10.6283 17.1595 10.7227 17.1218 10.7969 17.0476C10.8754 16.9691 10.9143 16.8734 10.9143 16.76V15.9122H11.5392C11.6476 15.9122 11.7517 15.8691 11.8284 15.7924C11.9052 15.7157 11.9482 15.6116 11.9482 15.5031C11.9482 15.3946 11.9052 15.2906 11.8284 15.2139C11.7517 15.1371 11.6476 15.094 11.5392 15.094H10.9143V14.6426H11.5392C11.6476 14.6426 11.7517 14.5995 11.8284 14.5228C11.9052 14.4461 11.9482 14.342 11.9482 14.2335C11.9482 14.125 11.9052 14.021 11.8284 13.9442C11.7517 13.8675 11.6476 13.8244 11.5392 13.8244H10.9143V12.9439C10.9143 12.8392 10.8816 12.7517 10.8161 12.6818C10.7506 12.612 10.6659 12.5772 10.5612 12.5772C10.4521 12.5772 10.3645 12.612 10.2991 12.6818C10.2336 12.7517 10.2008 12.8392 10.2008 12.9439V13.8244H8.68271L7.81818 12.7218C7.7875 12.6738 7.73982 12.6381 7.67436 12.6163C7.60891 12.5901 7.54611 12.5772 7.485 12.5772V12.5771ZM7.8054 14.6426H8.31357L8.66832 15.094H7.8054V14.6426ZM9.32431 14.6426H10.2008V15.094H9.67747L9.32431 14.6426Z" fill="#BFD5FE"/>
</svg>
