<svg width="24" height="24" viewBox="0 0 24 24" fill="none" xmlns="http://www.w3.org/2000/svg">
<path d="M19.791 20H4.20703C3.37903 20 2.70703 20.671 2.70703 21.5C2.70703 22.329 3.37903 23 4.20703 23H19.791C20.619 23 21.291 22.329 21.291 21.5C21.291 20.671 20.619 20 19.791 20Z" fill="#AFAFAF"/>
<path d="M20.6531 18.064C21.3321 15.823 22.0431 12.984 22.0431 10.921C22.0431 10.525 21.8091 10.166 21.4461 10.006C18.0741 8.521 15.6931 7.64 13.4981 7.362V6.174H14.3841C15.2121 6.174 15.8841 5.503 15.8841 4.674C15.8841 3.845 15.2121 3.174 14.3841 3.174H13.4981V2.5C13.4981 1.671 12.8261 1 11.9981 1C11.1701 1 10.4981 1.671 10.4981 2.5V3.174H9.61213C8.78413 3.174 8.11213 3.845 8.11213 4.674C8.11213 5.503 8.78413 6.174 9.61213 6.174H10.4981V7.362C8.30313 7.64 5.92212 8.522 2.55013 10.006C2.18813 10.166 1.95312 10.525 1.95312 10.921C1.95312 12.997 2.66212 15.828 3.34012 18.064H20.6531Z" fill="#AFAFAF"/>
</svg>
