<svg width="24" height="24" viewBox="0 0 24 24" fill="none" xmlns="http://www.w3.org/2000/svg">
<g clip-path="url(#clip0_2683_6576)">
<path d="M20 19.9999H4C3.46957 19.9999 2.96086 20.2106 2.58579 20.5857C2.21071 20.9608 2 21.4695 2 21.9999C2 22.5303 2.21071 23.039 2.58579 23.4141C2.96086 23.7892 3.46957 23.9999 4 23.9999H20C20.5304 23.9999 21.0391 23.7892 21.4142 23.4141C21.7893 23.039 22 22.5303 22 21.9999C22 21.4695 21.7893 20.9608 21.4142 20.5857C21.0391 20.2106 20.5304 19.9999 20 19.9999ZM18.025 9.9999H13.778C14.036 10.7621 14.4531 11.4608 15.0015 12.0497C15.5498 12.6386 16.2171 13.1043 16.959 13.4159C17.8528 13.8069 18.615 14.4473 19.1543 15.2602C19.6936 16.0732 19.9872 17.0244 20 17.9999H4V8.4999C4 8.4209 4.1 0.536898 12.536 -0.000101658C12.9846 -0.0364773 13.4322 0.08082 13.8053 0.332516C14.1784 0.584212 14.4548 0.955334 14.589 1.3849C14.7918 2.27309 15.2206 3.09384 15.8338 3.76765C16.447 4.44146 17.2238 4.94549 18.089 5.2309C18.6503 5.45222 19.1324 5.83672 19.4731 6.33476C19.8137 6.8328 19.9973 7.42151 20 8.0249C19.9995 8.54854 19.7912 9.05058 19.421 9.42085C19.0507 9.79112 18.5486 9.99937 18.025 9.9999Z" fill="#AFAFAF"/>
</g>
<defs>
<clipPath id="clip0_2683_6576">
<rect width="24" height="24" fill="white" transform="matrix(-1 0 0 1 24 0)"/>
</clipPath>
</defs>
</svg>
