<svg width="17" height="33" viewBox="0 0 17 33" fill="none" xmlns="http://www.w3.org/2000/svg">
<path d="M16.3491 26.185C15.598 26.7867 13.574 27.2631 10.9762 27.4648C10.0998 27.5342 9.15753 27.5727 8.1768 27.5727C7.19607 27.5727 6.25711 27.5342 5.38427 27.4648C4.83125 27.423 4.30256 27.3674 3.80874 27.2979C1.97951 27.0509 0.602338 26.6544 0.0078125 26.1817C0.0078125 26.0146 0.0180493 25.9069 0.0180493 25.9069C0.0180493 25.6737 0.0252413 25.4582 0.0390739 25.2529C0.654625 25.7191 2.04204 26.1086 3.86103 26.3485C4.34102 26.4146 4.84868 26.4666 5.38427 26.5084C6.25711 26.5781 7.19607 26.6127 8.1768 26.6127C9.15753 26.6127 10.0998 26.5781 10.9762 26.5084C13.5358 26.3103 15.5388 25.8408 16.3179 25.2529C16.3353 25.4582 16.3422 25.6773 16.3422 25.9069C16.3422 25.9069 16.3527 26.0112 16.3527 26.1817L16.3491 26.185Z" fill="#0E9384"/>
<path d="M16.3359 30.1791C16.3359 30.5199 16.1444 30.8328 15.8315 30.9756C14.3465 31.6431 11.2828 32.0988 7.74249 32.0988C6.36532 32.0988 5.06477 32.0293 3.89979 31.9076C2.62691 31.7718 1.51422 31.5701 0.648297 31.3266C0.269283 31.219 0.0117188 30.8713 0.0117188 30.4781V29.9531C0.0117188 29.4244 0.0883525 28.8993 0.251854 28.3916C0.265687 28.3499 0.276199 28.3186 0.286436 28.2979C0.84306 28.7742 2.22356 29.174 4.0597 29.4175C4.51175 29.4731 4.98814 29.5254 5.48916 29.5635C6.32714 29.6297 7.22792 29.6678 8.17379 29.6678C9.11967 29.6678 10.0238 29.6297 10.862 29.5635C13.4006 29.3654 15.369 28.8924 16.0612 28.2979C16.0783 28.3429 16.1168 28.4752 16.1549 28.6351C16.2767 29.1394 16.3392 29.6576 16.3392 30.1758L16.3359 30.1791Z" fill="#0E9384"/>
<path d="M16.3139 25.2593C15.5349 25.8469 13.5319 26.3164 10.9723 26.5148C10.0959 26.5842 9.15362 26.6191 8.17289 26.6191C7.19215 26.6191 6.2532 26.5842 5.38036 26.5148C4.84476 26.473 4.3371 26.4207 3.85711 26.3546C2.0348 26.1147 0.650708 25.7219 0.0351562 25.2593C0.125622 23.8716 0.511552 23.0337 0.956686 22.5257C1.20014 22.2477 1.32187 21.8825 1.32187 21.5104V21.4999C1.91307 21.8999 3.18263 22.2303 4.82401 22.4214C5.1369 22.4563 5.46391 22.4911 5.80115 22.5188C6.54174 22.5744 7.34182 22.6093 8.17648 22.6093C9.01087 22.6093 9.81095 22.5744 10.5551 22.5188C12.6696 22.352 14.3317 21.9763 15.0341 21.4966V21.5104C15.0341 21.8825 15.1559 22.251 15.3993 22.5293C15.8481 23.0337 16.2307 23.8716 16.3175 25.2593H16.3139Z" fill="#2ED3B7"/>
<path d="M16.0702 27.6325C15.9692 27.8483 15.9692 28.0881 16.0597 28.3003C15.3642 28.8948 13.3994 29.3679 10.8605 29.566C10.0226 29.6321 9.11846 29.6703 8.17231 29.6703C7.22644 29.6703 6.32566 29.6321 5.48768 29.566C4.98694 29.5278 4.50694 29.4758 4.05849 29.4199C2.22207 29.1765 0.841576 28.7767 0.285228 28.3003C0.330322 28.1993 0.351071 28.0881 0.351071 27.9802C0.351071 27.8621 0.327002 27.7473 0.274715 27.6361C0.0417735 27.1386 0 26.53 0 26.1895C0.594803 26.6623 1.9753 27.0587 3.80093 27.3057C4.29475 27.3752 4.82344 27.4275 5.37646 27.4726C6.2493 27.542 7.18826 27.5805 8.16899 27.5805C9.14972 27.5805 10.092 27.542 10.9684 27.4726C13.5698 27.2709 15.5902 26.7945 16.3413 26.1928C16.3413 26.5336 16.2995 27.1423 16.0666 27.6394L16.0702 27.6325Z" fill="#2ED3B7"/>
<path d="M15.0287 19.8867V21.4935C14.3296 21.9699 12.6639 22.3489 10.5494 22.5157C9.80881 22.5716 9.00541 22.6062 8.17075 22.6062C7.33609 22.6062 6.53988 22.5716 5.79569 22.5157C5.45817 22.4881 5.13144 22.4568 4.81827 22.4184C3.17689 22.2272 1.90761 21.8969 1.31641 21.4968V19.8867C2.05368 20.2312 3.29171 20.5161 4.82187 20.6796C5.83027 20.7944 6.9709 20.8569 8.17075 20.8569C11.1962 20.8569 13.8045 20.4605 15.0287 19.8867Z" fill="#0E9384"/>
<path d="M15.0287 19.888C13.8045 20.4618 11.1962 20.8582 8.17075 20.8582C6.9709 20.8582 5.83386 20.7957 4.82187 20.6809C3.29171 20.5141 2.05368 20.2324 1.31641 19.888L3.02031 18.6361C4.64786 17.4363 5.799 15.6801 6.16778 13.6943C6.18161 13.6074 6.19904 13.5239 6.20956 13.4406C6.6024 13.4719 7.01628 13.4962 7.44038 13.5031C7.67692 13.5136 7.92038 13.5136 8.16743 13.5136C8.85602 13.5136 9.51666 13.4857 10.1286 13.437C10.1391 13.517 10.1566 13.6041 10.1704 13.691C10.5392 15.6768 11.69 17.433 13.3176 18.6325L15.0218 19.8847L15.0287 19.888Z" fill="#2ED3B7"/>
<path d="M14.1331 11.4097V12.1746C14.1331 12.7625 12.4637 13.2563 10.1371 13.437C9.52514 13.4857 8.86449 13.5136 8.17591 13.5136C7.92885 13.5136 7.6854 13.5136 7.44914 13.5031C7.02116 13.4926 6.61088 13.4682 6.21804 13.4406C3.89139 13.2596 2.21875 12.7658 2.21875 12.1782V11.413C2.21875 11.5452 2.30562 11.6739 2.46912 11.7956C3.02547 12.2164 4.46876 12.5467 6.3049 12.6823C6.64214 12.7102 6.9899 12.7276 7.34816 12.7382C7.61956 12.7484 7.89427 12.752 8.17922 12.752C8.83323 12.752 9.46593 12.7276 10.0538 12.6823C11.89 12.5467 13.3297 12.2164 13.886 11.7956C14.0495 11.6739 14.1364 11.5452 14.1364 11.413L14.1331 11.4097Z" fill="#0E9384"/>
<path d="M14.1327 11.4119C14.1327 11.5439 14.0456 11.6728 13.8824 11.7943C13.3258 12.2151 11.8861 12.5457 10.0499 12.6812C9.46231 12.7263 8.82933 12.7506 8.1756 12.7506C7.89396 12.7506 7.61565 12.7506 7.34426 12.7368C6.98627 12.7263 6.63852 12.7089 6.301 12.6812C4.46486 12.5457 3.02156 12.2151 2.46521 11.7943C2.30171 11.6728 2.21484 11.5439 2.21484 11.4119C2.21484 10.8484 3.77295 10.3615 5.97068 10.167C6.63492 10.5147 7.37911 10.7128 8.172 10.7128C8.96489 10.7128 9.71267 10.5147 10.3769 10.167C12.5782 10.3615 14.1327 10.8451 14.1327 11.4119Z" fill="#15B79E"/>
<path d="M13.1605 5.35864C13.1605 7.4695 12.0234 9.29181 10.3749 10.1646C9.71062 10.5124 8.96311 10.7105 8.17022 10.7105C7.37733 10.7105 6.63314 10.5124 5.9689 10.1646C4.31701 9.28821 3.17969 7.4695 3.17969 5.35864C3.17969 2.39901 5.41587 0.00292969 8.17022 0.00292969C8.77166 0.00292969 9.35263 0.117738 9.88795 0.326334C11.8007 1.07745 13.1605 3.04583 13.1605 5.35864Z" fill="#2ED3B7"/>
<g style="mix-blend-mode:soft-light" opacity="0.5">
<path d="M11.6348 3.12986C11.798 3.72438 11.6174 4.3261 11.2209 4.7018C11.0608 4.85119 10.8663 4.966 10.6402 5.0252C10.4139 5.08413 10.1915 5.08773 9.976 5.03904C9.4404 4.92091 8.98116 4.49293 8.81794 3.8984C8.58831 3.06374 9.03704 2.21525 9.8125 2.00305C10.588 1.79086 11.4052 2.2952 11.6348 3.12986Z" fill="#F0FDF9"/>
</g>
<g style="mix-blend-mode:soft-light" opacity="0.5">
<path d="M9.887 0.327005C9.37216 0.699103 8.78095 1.25877 8.30123 2.0796C7.9568 2.66029 7.66825 3.37322 7.49783 4.23914V4.24606C7.18826 5.83183 7.27872 7.93605 8.17231 10.7145C8.17231 10.7145 7.33433 11.4518 7.34125 12.7351C7.34125 12.9717 7.37251 13.2323 7.44223 13.5037V13.5142C7.44223 13.5142 8.07853 16.543 4.81652 20.6814V22.4202C4.81652 22.4202 4.0513 24.2007 3.85321 26.3534C3.81836 26.6629 3.80452 26.9794 3.80093 27.2995C3.80093 28.0019 3.86705 28.7218 4.05489 29.4137C4.05489 29.4137 3.77326 30.4675 3.89831 31.9038C2.62571 31.768 1.51273 31.5663 0.646813 31.3229C0.267799 31.2152 0.0105133 30.8675 0.0105133 30.4744V29.9493C0.0105133 29.4206 0.0868685 28.8955 0.25037 28.3879C0.264203 28.3461 0.274715 28.3148 0.285228 28.2941C0.330322 28.1931 0.351071 28.0819 0.351071 27.974C0.351071 27.8559 0.327002 27.741 0.274715 27.6298C0.0417735 27.1324 0 26.5238 0 26.1829C0 26.0161 0.0105133 25.9082 0.0105133 25.9082C0.0105133 25.6753 0.0174288 25.4598 0.0312614 25.2545C0.121727 23.8671 0.507657 23.0288 0.952791 22.5212C1.19625 22.2429 1.31797 21.8777 1.31797 21.5056V19.8816L3.02215 18.6298C4.6497 17.4299 5.80057 15.6737 6.16935 13.6879C6.18318 13.6011 6.20061 13.5175 6.21112 13.434C3.88448 13.2533 2.21184 12.7595 2.21184 12.1716V11.4067C2.21184 10.8431 3.76967 10.3565 5.96767 10.1617C4.31578 9.28528 3.17846 7.46657 3.17846 5.35544C3.17846 2.39609 5.41464 0 8.16899 0C8.77071 0 9.35141 0.114813 9.887 0.323408V0.327005Z" fill="#F0FDF9"/>
</g>
<g style="mix-blend-mode:multiply" opacity="0.5">
<path d="M9.18359 10.6018H9.19051C9.34682 10.6193 11.9202 10.9114 12.1916 12.3998C12.1916 12.3998 12.3203 12.7232 12.3028 13.1407C13.4297 12.9005 14.1321 12.5597 14.1321 12.1774V11.4122C14.1321 10.8489 12.5776 10.362 10.3762 10.1672C12.0281 9.29438 13.1654 7.47208 13.1654 5.36122C13.1654 3.43793 12.2229 1.75478 10.8075 0.8125C10.8944 1.21918 10.9849 1.70968 11.0543 2.26243C11.1448 3.00331 11.1971 3.8554 11.1517 4.7631C11.0615 6.6305 10.5677 8.73444 9.18359 10.6018Z" fill="#107569"/>
<path d="M16.0631 28.3036C15.976 28.0917 15.9727 27.8515 16.0734 27.636C16.3066 27.1386 16.3481 26.53 16.3481 26.1894C16.3481 26.0223 16.3379 25.918 16.3379 25.918C16.3379 25.6851 16.3343 25.466 16.3168 25.2607C16.2264 23.8766 15.844 23.035 15.3953 22.531C15.1518 22.2526 15.0301 21.8839 15.0301 21.5118V19.8878L13.3262 18.636C11.702 17.4361 10.5508 15.6799 10.1787 13.6941C10.1649 13.6073 10.1511 13.5237 10.1372 13.4404L8.17578 13.5168C8.17578 13.5168 8.58605 17.3457 11.4345 20.6945V22.4336C11.4345 22.4336 12.408 23.6437 12.3491 26.377C12.3419 26.6796 12.3245 26.9994 12.2863 27.337C12.2238 27.9802 12.1056 28.6898 11.9142 29.4686C11.9142 29.4686 12.2063 30.5085 12.1751 31.837C13.7434 31.6422 15.0232 31.3432 15.8335 30.978C16.1464 30.8355 16.3379 30.5223 16.3379 30.1815C16.3379 29.66 16.2787 29.1452 16.1569 28.6411C16.1152 28.4809 16.0803 28.349 16.0631 28.3036Z" fill="#107569"/>
</g>
</svg>
