<svg width="20" height="20" viewBox="0 0 20 20" fill="none" xmlns="http://www.w3.org/2000/svg">
<path fill-rule="evenodd" clip-rule="evenodd" d="M9.30675 13.4693L9.2985 19.9982L10.6778 20L10.6861 13.4479L13.2013 19.498L14.4749 18.9687L11.9756 12.9567L16.5739 17.5663L17.5505 16.5923L12.9325 11.963L18.9722 14.4693L19.5009 13.1954L13.4622 10.6895H20V9.31034H13.478L19.5073 6.82041L18.9807 5.54567L12.9756 8.0256L17.5926 3.45621L16.6223 2.47598L11.9462 7.10383L14.4657 1.0276L13.1916 0.499376L10.6949 6.52058L10.7031 0.00174786L9.32385 0L9.31555 6.55783L6.79815 0.502285L5.5245 1.03167L8.02275 7.04119L3.42634 2.43349L2.44977 3.40749L7.06635 8.0354L1.02855 5.52982L0.499842 6.80366L6.5403 9.31034H0V10.6895H6.52485L0.495252 13.1795L1.02177 14.4543L7.0235 11.9758L2.40767 16.544L3.37796 17.5242L8.04915 12.9012L5.5316 18.9727L6.80575 19.5009L9.30675 13.4693Z" fill="#5A5A5A"/>
</svg>
